# xmcd
#
# Track frame offsets: 
#        150
#        13907
#        26972
#        40155
#        54407
#        70775
#        84097
#        98135
#        112680
#        125487
#        139742
#        152212
#        167475
#        181645
#        195717
#        208507
#        222890
#        237375
#        250942
#        264442
#        279447
#        293100
#        308090
#
# Disc length: 4260 seconds
#
# Revision: 2
# Processed by: cddbd v1.5.2PL0 Copyright (c) Steve Scherf et al.
# Submitted via: ExactAudioCopy v0.99pb4
#
DISCID=3c10a217
DTITLE=Roosevelt Sykes - Complete Recorded Works - Vol. 1
DYEAR=1900
DGENRE=Blues
TTITLE0="44" Blues
TTITLE1=All My Money Gone Blues
TTITLE2=The Way I Feel Blues
TTITLE3=Henry Ford Blues
TTITLE4=I'm Tired Of Being Mistreated
TTITLE5=Boot That Thing
TTITLE6=Fire Detective Blues
TTITLE7=Little Sow Blues
TTITLE8=Single Tree Blues
TTITLE9=Trouble Everywhere Blues (Mae Belle Miller, vcl.)
TTITLE10=Working Man On The Seas (Mae Belle Miller, vlc.)
TTITLE11=Beale And Main Blues (Mae Belle Miller, vcl.)
TTITLE12=Long Tall Man Blues (Mae Belle Miller, vcl.)
TTITLE13=Skeet And Garret
TTITLE14=Roosevelt's Blues
TTITLE15=Ten And Four Blues
TTITLE16=Black River Blues
TTITLE17=Bury That Thing
TTITLE18=Home Of Your Own Blues
TTITLE19=Lost All I Had Blues
TTITLE20=Poor Boy Blues
TTITLE21=Jivin' Jelly Roll Blues (Bee Turner, vcl.)
TTITLE22=Rough Treatin' Daddy (Bee Turner, vcl.)
EXTD=Complete Recorded Workds In Chronological Order\nVol. 1 - 14 June
EXTD=1929 to 1 June 1930\n\nSee Also: http://www.document-records.co.
EXTD=uk/\nDocument Records\nDOCD-5116\n
EXTT0=
EXTT1=
EXTT2=
EXTT3=
EXTT4=
EXTT5=
EXTT6=
EXTT7=
EXTT8=
EXTT9=
EXTT10=
EXTT11=
EXTT12=
EXTT13=
EXTT14=
EXTT15=
EXTT16=
EXTT17=
EXTT18=
EXTT19=
EXTT20=
EXTT21=
EXTT22=
PLAYORDER=
